<svg width="37" height="37" viewBox="0 0 37 37" fill="none" xmlns="http://www.w3.org/2000/svg">
<ellipse cx="18.4999" cy="18.5004" rx="15.5981" ry="15.598" fill="black" fill-opacity="0.1"/>
<path d="M24.6668 15.4167C24.6668 17.0522 24.0171 18.6207 22.8607 19.7772C21.7042 20.9336 20.1357 21.5833 18.5002 21.5833C16.8647 21.5833 15.2961 20.9336 14.1397 19.7772C12.9832 18.6207 12.3335 17.0522 12.3335 15.4167C12.3335 13.7812 12.9832 12.2126 14.1397 11.0562C15.2961 9.8997 16.8647 9.25 18.5002 9.25C20.1357 9.25 21.7042 9.8997 22.8607 11.0562C24.0171 12.2126 24.6668 13.7812 24.6668 15.4167Z" fill="#303FCE" fill-opacity="0.59"/>
<path fill-rule="evenodd" clip-rule="evenodd" d="M17.8712 33.904C9.64869 33.5741 3.0835 26.8031 3.0835 18.4997C3.0835 9.98505 9.98554 3.08301 18.5002 3.08301C27.0148 3.08301 33.9169 9.98505 33.9169 18.4997C33.9169 27.0143 27.0148 33.9163 18.5002 33.9163C18.4298 33.9168 18.3594 33.9168 18.289 33.9163C18.1494 33.9163 18.0099 33.9117 17.8712 33.904ZM8.60729 28.2276C8.49203 27.8966 8.45279 27.5438 8.4925 27.1956C8.53221 26.8473 8.64985 26.5125 8.83668 26.2159C9.02351 25.9194 9.27473 25.6687 9.5717 25.4825C9.86867 25.2963 10.2038 25.1794 10.5521 25.1404C16.5615 24.4752 20.4758 24.5353 26.456 25.1543C26.8048 25.1906 27.1407 25.306 27.4381 25.4918C27.7356 25.6776 27.9867 25.9288 28.1724 26.2263C28.3581 26.5238 28.4735 26.8597 28.5097 27.2085C28.5459 27.5574 28.5021 27.9098 28.3815 28.2392C30.9445 25.646 32.3798 22.1457 32.3752 18.4997C32.3752 10.8368 26.163 4.62467 18.5002 4.62467C10.8373 4.62467 4.62516 10.8368 4.62516 18.4997C4.62516 22.2891 6.14448 25.7239 8.60729 28.2276Z" fill="#303FCE" fill-opacity="0.59"/>
</svg>
