<svg width="30" height="30" viewBox="0 0 30 30" fill="none" xmlns="http://www.w3.org/2000/svg">
<path d="M8.75879 15C8.75879 14.7514 8.85756 14.5129 9.03338 14.3371C9.20919 14.1613 9.44765 14.0625 9.69629 14.0625H14.0625V9.69629C14.0625 9.44765 14.1613 9.20919 14.3371 9.03338C14.5129 8.85756 14.7514 8.75879 15 8.75879C15.2487 8.75879 15.4871 8.85756 15.663 9.03338C15.8388 9.20919 15.9375 9.44765 15.9375 9.69629V14.0625H20.3038C20.5524 14.0625 20.7909 14.1613 20.9667 14.3371C21.1425 14.5129 21.2413 14.7514 21.2413 15C21.2413 15.2487 21.1425 15.4871 20.9667 15.663C20.7909 15.8388 20.5524 15.9375 20.3038 15.9375H15.9375V20.3038C15.9375 20.5524 15.8388 20.7909 15.663 20.9667C15.4871 21.1425 15.2487 21.2413 15 21.2413C14.7514 21.2413 14.5129 21.1425 14.3371 20.9667C14.1613 20.7909 14.0625 20.5524 14.0625 20.3038V15.9375H9.69629C9.44765 15.9375 9.20919 15.8388 9.03338 15.663C8.85756 15.4871 8.75879 15.2487 8.75879 15Z" fill="url(#paint0_linear_77_131)"/>
<path fill-rule="evenodd" clip-rule="evenodd" d="M9.14642 4.71117C13.037 4.27987 16.9633 4.27987 20.8539 4.71117C23.1377 4.96617 24.9814 6.76492 25.2489 9.06117C25.7114 13.0074 25.7114 16.9937 25.2489 20.9399C24.9802 23.2362 23.1364 25.0337 20.8539 25.2899C16.9633 25.7212 13.037 25.7212 9.14642 25.2899C6.86267 25.0337 5.01892 23.2362 4.75142 20.9399C4.28989 16.9938 4.28989 13.0073 4.75142 9.06117C5.01892 6.76492 6.86392 4.96617 9.14642 4.71117ZM20.6464 6.57367C16.8937 6.15771 13.1066 6.15771 9.35392 6.57367C8.65922 6.65074 8.0108 6.95976 7.51339 7.45082C7.01599 7.94187 6.69866 8.58627 6.61267 9.27992C6.1681 13.0811 6.1681 16.9212 6.61267 20.7224C6.69892 21.4158 7.01636 22.06 7.51375 22.5508C8.01113 23.0416 8.65941 23.3504 9.35392 23.4274C13.0752 23.8424 16.9252 23.8424 20.6464 23.4274C21.3407 23.3501 21.9887 23.0412 22.4858 22.5504C22.983 22.0596 23.3002 21.4157 23.3864 20.7224C23.831 16.9212 23.831 13.0811 23.3864 9.27992C23.3 8.58691 22.9826 7.94323 22.4855 7.4527C21.9884 6.96217 21.3405 6.65339 20.6464 6.57617" fill="url(#paint1_linear_77_131)"/>
<defs>
<linearGradient id="paint0_linear_77_131" x1="15" y1="8.75879" x2="15" y2="21.2413" gradientUnits="userSpaceOnUse">
<stop stop-color="#19D2C7"/>
<stop offset="1" stop-color="#4958E5"/>
</linearGradient>
<linearGradient id="paint1_linear_77_131" x1="15.0005" y1="4.3877" x2="15.0005" y2="25.6134" gradientUnits="userSpaceOnUse">
<stop stop-color="#19D2C7"/>
<stop offset="1" stop-color="#4958E5"/>
</linearGradient>
</defs>
</svg>
