<svg width="25" height="29" viewBox="0 0 25 29" fill="none" xmlns="http://www.w3.org/2000/svg">
<path d="M18.2672 0.0145127C18.2056 -0.0543623 15.9853 0.0417003 14.0532 2.13876C12.1211 4.23401 12.4183 6.63739 12.4618 6.69901C12.5053 6.76064 15.2168 6.8567 16.9477 4.41889C18.6787 1.98107 18.3289 0.0852002 18.2672 0.0145127ZM24.2739 21.2806C24.1869 21.1066 20.0598 19.0439 20.4441 15.0782C20.8283 11.1106 23.48 10.0231 23.5217 9.90533C23.5634 9.78751 22.4396 8.47345 21.2488 7.80826C20.3745 7.33928 19.4068 7.07059 18.4159 7.02164C18.2201 7.0162 17.5404 6.84945 16.143 7.23189C15.2222 7.48383 13.1469 8.29945 12.576 8.33208C12.0032 8.3647 10.2995 7.38595 8.46705 7.12676C7.29437 6.9002 6.05099 7.3642 5.16105 7.72126C4.27293 8.07651 2.58368 9.08789 1.40193 11.7758C0.220178 14.462 0.83824 18.7177 1.28049 20.0408C1.72274 21.3621 2.4133 23.5281 3.5878 25.1086C4.6318 26.8921 6.01655 28.13 6.59474 28.5505C7.17293 28.971 8.80418 29.2501 9.93518 28.6719C10.8451 28.1137 12.4872 27.7929 13.1361 27.8165C13.7831 27.84 15.0591 28.0956 16.3659 28.7934C17.4009 29.1504 18.3796 29.0018 19.3602 28.6031C20.3407 28.2025 21.7599 26.6836 23.4166 23.6042C24.0455 22.1723 24.3319 21.3984 24.2739 21.2806Z" fill="black"/>
<path d="M18.2672 0.0145127C18.2056 -0.0543623 15.9853 0.0417003 14.0532 2.13876C12.1211 4.23401 12.4183 6.63739 12.4618 6.69901C12.5053 6.76064 15.2168 6.8567 16.9477 4.41889C18.6787 1.98107 18.3289 0.0852002 18.2672 0.0145127ZM24.2739 21.2806C24.1869 21.1066 20.0598 19.0439 20.4441 15.0782C20.8283 11.1106 23.48 10.0231 23.5217 9.90533C23.5634 9.78751 22.4396 8.47345 21.2488 7.80826C20.3745 7.33928 19.4068 7.07059 18.4159 7.02164C18.2201 7.0162 17.5404 6.84945 16.143 7.23189C15.2222 7.48383 13.1469 8.29945 12.576 8.33208C12.0032 8.3647 10.2995 7.38595 8.46705 7.12676C7.29437 6.9002 6.05099 7.3642 5.16105 7.72126C4.27293 8.07651 2.58368 9.08789 1.40193 11.7758C0.220178 14.462 0.83824 18.7177 1.28049 20.0408C1.72274 21.3621 2.4133 23.5281 3.5878 25.1086C4.6318 26.8921 6.01655 28.13 6.59474 28.5505C7.17293 28.971 8.80418 29.2501 9.93518 28.6719C10.8451 28.1137 12.4872 27.7929 13.1361 27.8165C13.7831 27.84 15.0591 28.0956 16.3659 28.7934C17.4009 29.1504 18.3796 29.0018 19.3602 28.6031C20.3407 28.2025 21.7599 26.6836 23.4166 23.6042C24.0455 22.1723 24.3319 21.3984 24.2739 21.2806Z" fill="black"/>
</svg>
