<svg width="114" height="55" viewBox="0 0 114 55" fill="none" xmlns="http://www.w3.org/2000/svg">
<path d="M4.04297 24.3672L0.896484 23.1719L1.125 21.1328H8.06836L18.3867 35.9336V24.1387L15.1172 23.1191L15.4336 21.1328H24.6797L24.3281 23.1191L21.3926 24.0508V42.8594L17.5605 43.5273L7.22461 29.1133V40.1523L10.4062 40.9961L10.1953 43H0.914062L1.08984 41.1367L4.04297 40.0293V24.3672ZM89.2118 42.1387C87.747 42.7129 85.913 43 83.7099 43H73.497L73.7255 41.1367L76.6435 40.0293V24.4375L73.6552 23.7871L73.831 21.7129C77.7099 21.1738 80.874 20.9043 83.3232 20.9043C85.3154 20.9043 86.9501 21.1504 88.2275 21.6426C89.5048 22.123 90.4306 22.7617 91.0048 23.5586C91.5908 24.3438 91.8837 25.2051 91.8837 26.1426C91.8837 26.7871 91.7431 27.4375 91.4618 28.0938C91.1806 28.7383 90.7646 29.3242 90.2138 29.8516C89.6747 30.3672 89.0302 30.7539 88.2802 31.0117V31.1699C89.4169 31.2285 90.3779 31.5156 91.163 32.0312C91.9482 32.5469 92.5341 33.1914 92.9208 33.9648C93.3193 34.7266 93.5185 35.5117 93.5185 36.3203C93.5185 37.6094 93.1669 38.7578 92.4638 39.7656C91.7607 40.7734 90.6767 41.5645 89.2118 42.1387ZM82.7607 23.207C82.3974 23.207 82.0107 23.2422 81.6005 23.3125V30.5547H85.3974C85.9716 30.1797 86.3935 29.7168 86.663 29.166C86.9443 28.6035 87.0849 27.9238 87.0849 27.127C87.0849 25.9785 86.7392 25.041 86.0478 24.3145C85.3681 23.5762 84.2724 23.207 82.7607 23.207ZM84.2548 32.752H81.6005V40.5215H84.5185C85.3154 40.5215 86.0126 40.3633 86.6103 40.0469C87.2079 39.7305 87.6708 39.2969 87.999 38.7461C88.3271 38.1953 88.4911 37.5742 88.4911 36.8828C88.4911 36.1445 88.3212 35.459 87.9814 34.8262C87.6533 34.1934 87.1669 33.6895 86.5224 33.3145C85.8779 32.9395 85.122 32.752 84.2548 32.752ZM94.7558 43L94.58 40.0117L106.674 23.5059H98.9569L97.7265 27.918L95.1776 27.4961L95.3534 21.1328H112.58L112.51 23.1719L99.7831 40.3105L107.939 40.5742L110.646 35.8984L112.791 36.25L111.754 43H94.7558Z" fill="#303FCE"/>
<path d="M42.7744 42.0508C40.9345 43 38.79 43.4746 36.3408 43.4746C34.0205 43.4746 32.0517 42.9941 30.4345 42.0332C28.8291 41.0605 27.622 39.7188 26.8135 38.0078C26.0166 36.2969 25.6181 34.334 25.6181 32.1191C25.6181 29.8574 26.0869 27.8652 27.0244 26.1426C27.9619 24.4082 29.3271 23.0664 31.1201 22.1172C32.9248 21.1562 35.0752 20.6758 37.5713 20.6758C39.833 20.6758 41.7842 21.127 43.4248 22.0293C45.0771 22.9316 46.3369 24.2441 47.2041 25.9668C48.083 27.6895 48.5224 29.7578 48.5224 32.1719C48.5224 34.3984 48.0244 36.3672 47.0283 38.0781C46.0322 39.7773 44.6142 41.1016 42.7744 42.0508ZM40.2959 24.6309C39.3818 23.5762 38.1924 23.0488 36.7275 23.0488C34.7119 23.0488 33.2822 23.7695 32.4385 25.2109C31.5947 26.6406 31.1728 28.6211 31.1728 31.1523C31.1728 32.6172 31.3662 34.0938 31.7529 35.582C32.1513 37.0703 32.8017 38.3242 33.7041 39.3438C34.6181 40.3633 35.7959 40.873 37.2373 40.873C40.9756 40.873 42.8447 38.2246 42.8447 32.9277C42.8447 31.4629 42.6455 29.9805 42.247 28.4805C41.8603 26.9688 41.2099 25.6855 40.2959 24.6309ZM66.7226 42.0508C64.8828 43 62.7382 43.4746 60.289 43.4746C57.9687 43.4746 56 42.9941 54.3828 42.0332C52.7773 41.0605 51.5703 39.7188 50.7617 38.0078C49.9648 36.2969 49.5664 34.334 49.5664 32.1191C49.5664 29.8574 50.0351 27.8652 50.9726 26.1426C51.9101 24.4082 53.2753 23.0664 55.0683 22.1172C56.873 21.1562 59.0234 20.6758 61.5195 20.6758C63.7812 20.6758 65.7324 21.127 67.373 22.0293C69.0253 22.9316 70.2851 24.2441 71.1523 25.9668C72.0312 27.6895 72.4707 29.7578 72.4707 32.1719C72.4707 34.3984 71.9726 36.3672 70.9765 38.0781C69.9804 39.7773 68.5625 41.1016 66.7226 42.0508ZM64.2441 24.6309C63.33 23.5762 62.1406 23.0488 60.6757 23.0488C58.6601 23.0488 57.2304 23.7695 56.3867 25.2109C55.5429 26.6406 55.121 28.6211 55.121 31.1523C55.121 32.6172 55.3144 34.0938 55.7011 35.582C56.0996 37.0703 56.75 38.3242 57.6523 39.3438C58.5664 40.3633 59.7441 40.873 61.1855 40.873C64.9238 40.873 66.7929 38.2246 66.7929 32.9277C66.7929 31.4629 66.5937 29.9805 66.1953 28.4805C65.8085 26.9688 65.1582 25.6855 64.2441 24.6309Z" fill="#19D2C7"/>
<path d="M41 21V2C41 1.44772 41.4477 1 42 1H58C58.5523 1 59 1.44772 59 2V21" stroke="url(#paint0_linear_41_87)"/>
<path d="M61 21.3333V14C61 13.4477 61.4477 13 62 13H68C68.5523 13 69 13.4477 69 14V23" stroke="url(#paint1_linear_41_87)"/>
<path d="M39 21.3333V13H31V23" stroke="url(#paint2_linear_41_87)"/>
<defs>
<linearGradient id="paint0_linear_41_87" x1="50" y1="1" x2="50" y2="21" gradientUnits="userSpaceOnUse">
<stop stop-color="#19D2C7"/>
<stop offset="0.765625" stop-color="#303FCE"/>
</linearGradient>
<linearGradient id="paint1_linear_41_87" x1="65" y1="13" x2="65" y2="23" gradientUnits="userSpaceOnUse">
<stop stop-color="#19D2C7"/>
<stop offset="0.765625" stop-color="#303FCE"/>
</linearGradient>
<linearGradient id="paint2_linear_41_87" x1="35" y1="13" x2="35" y2="23" gradientUnits="userSpaceOnUse">
<stop stop-color="#19D2C7"/>
<stop offset="0.765625" stop-color="#303FCE"/>
</linearGradient>
</defs>
</svg>
