<svg width="35" height="35" viewBox="0 0 35 35" fill="none" xmlns="http://www.w3.org/2000/svg">
<g clip-path="url(#clip0_77_138)">
<path d="M17.0558 23.0614C17.0545 23.3147 17.1008 23.5656 17.1919 23.8001C17.283 24.0345 17.4172 24.2478 17.5868 24.4278C17.7564 24.6077 17.9581 24.7508 18.1803 24.8489C18.4026 24.9471 18.6411 24.9982 18.8822 24.9995C19.3691 25.0022 19.837 24.8016 20.1831 24.4418C20.5292 24.0821 20.725 23.5927 20.7275 23.0813V23.0614M24.1411 20.5129V15.8659C24.1404 14.629 23.7428 13.4284 23.0126 12.4579C22.2824 11.4875 21.2621 10.8037 20.1164 10.5171V10.1087C20.1107 9.77168 19.9791 9.45048 19.7501 9.21427C19.5212 8.97805 19.213 8.8457 18.892 8.8457C18.5711 8.8457 18.2629 8.97805 18.034 9.21427C17.805 9.45048 17.6734 9.77168 17.6677 10.1087V10.5217C16.5259 10.8116 15.51 11.4961 14.7831 12.4653C14.0563 13.4345 13.6607 14.6322 13.66 15.8659V20.5129L12 22.2563V23.0614H25.8011V22.2563L24.1411 20.5129Z" stroke="url(#paint0_linear_77_138)" stroke-width="2" stroke-linecap="round" stroke-linejoin="round"/>
<path d="M24.1772 10.6011C24.1772 10.378 24.2708 10.164 24.4373 10.0062C24.6038 9.84842 24.8297 9.75978 25.0652 9.75978H29.2006V5.84135C29.2006 5.61821 29.2942 5.40421 29.4607 5.24642C29.6272 5.08864 29.853 5 30.0885 5C30.324 5 30.5499 5.08864 30.7164 5.24642C30.8829 5.40421 30.9765 5.61821 30.9765 5.84135V9.75978H35.1119C35.3474 9.75978 35.5732 9.84842 35.7398 10.0062C35.9063 10.164 35.9998 10.378 35.9998 10.6011C35.9998 10.8243 35.9063 11.0383 35.7398 11.196C35.5732 11.3538 35.3474 11.4425 35.1119 11.4425H30.9765V15.3609C30.9765 15.584 30.8829 15.798 30.7164 15.9558C30.5499 16.1136 30.324 16.2022 30.0885 16.2022C29.853 16.2022 29.6272 16.1136 29.4607 15.9558C29.2942 15.798 29.2006 15.584 29.2006 15.3609V11.4425H25.0652C24.8297 11.4425 24.6038 11.3538 24.4373 11.196C24.2708 11.0383 24.1772 10.8243 24.1772 10.6011Z" fill="url(#paint1_linear_77_138)"/>
</g>
<defs>
<linearGradient id="paint0_linear_77_138" x1="18.9005" y1="8.8457" x2="18.9005" y2="24.9995" gradientUnits="userSpaceOnUse">
<stop stop-color="#303FCE"/>
<stop offset="1" stop-color="#19D2C7"/>
</linearGradient>
<linearGradient id="paint1_linear_77_138" x1="30.0885" y1="5" x2="30.0885" y2="16.2022" gradientUnits="userSpaceOnUse">
<stop stop-color="#19D2C7"/>
<stop offset="1" stop-color="#4958E5"/>
</linearGradient>
<clipPath id="clip0_77_138">
<rect width="35" height="35" fill="white"/>
</clipPath>
</defs>
</svg>
