<svg width="27" height="29" viewBox="0 0 27 29" fill="none" xmlns="http://www.w3.org/2000/svg">
<path d="M1 13.9104C1 8.78568 1 6.22265 2.465 4.63129C3.92875 3.03857 6.28625 3.03857 11 3.03857H16C20.7137 3.03857 23.0712 3.03857 24.535 4.63129C26 6.22265 26 8.78568 26 13.9104V16.6283C26 21.753 26 24.316 24.535 25.9074C23.0712 27.5001 20.7137 27.5001 16 27.5001H11C6.28625 27.5001 3.92875 27.5001 2.465 25.9074C1 24.316 1 21.753 1 16.6283V13.9104Z" stroke="url(#paint0_linear_27_102)" stroke-width="1.5"/>
<path d="M7.25 3.03846V1M19.75 3.03846V1M1.625 9.83333H25.375" stroke="url(#paint1_linear_27_102)" stroke-width="1.5" stroke-linecap="round"/>
<path d="M21 20.7053C21 21.0657 20.8683 21.4114 20.6339 21.6662C20.3995 21.9211 20.0815 22.0642 19.75 22.0642C19.4185 22.0642 19.1005 21.9211 18.8661 21.6662C18.6317 21.4114 18.5 21.0657 18.5 20.7053C18.5 20.3448 18.6317 19.9992 18.8661 19.7443C19.1005 19.4895 19.4185 19.3463 19.75 19.3463C20.0815 19.3463 20.3995 19.4895 20.6339 19.7443C20.8683 19.9992 21 20.3448 21 20.7053ZM21 15.2694C21 15.6298 20.8683 15.9755 20.6339 16.2303C20.3995 16.4852 20.0815 16.6283 19.75 16.6283C19.4185 16.6283 19.1005 16.4852 18.8661 16.2303C18.6317 15.9755 18.5 15.6298 18.5 15.2694C18.5 14.909 18.6317 14.5633 18.8661 14.3084C19.1005 14.0536 19.4185 13.9104 19.75 13.9104C20.0815 13.9104 20.3995 14.0536 20.6339 14.3084C20.8683 14.5633 21 14.909 21 15.2694ZM14.75 20.7053C14.75 21.0657 14.6183 21.4114 14.3839 21.6662C14.1495 21.9211 13.8315 22.0642 13.5 22.0642C13.1685 22.0642 12.8505 21.9211 12.6161 21.6662C12.3817 21.4114 12.25 21.0657 12.25 20.7053C12.25 20.3448 12.3817 19.9992 12.6161 19.7443C12.8505 19.4895 13.1685 19.3463 13.5 19.3463C13.8315 19.3463 14.1495 19.4895 14.3839 19.7443C14.6183 19.9992 14.75 20.3448 14.75 20.7053ZM14.75 15.2694C14.75 15.6298 14.6183 15.9755 14.3839 16.2303C14.1495 16.4852 13.8315 16.6283 13.5 16.6283C13.1685 16.6283 12.8505 16.4852 12.6161 16.2303C12.3817 15.9755 12.25 15.6298 12.25 15.2694C12.25 14.909 12.3817 14.5633 12.6161 14.3084C12.8505 14.0536 13.1685 13.9104 13.5 13.9104C13.8315 13.9104 14.1495 14.0536 14.3839 14.3084C14.6183 14.5633 14.75 14.909 14.75 15.2694ZM8.5 20.7053C8.5 21.0657 8.3683 21.4114 8.13388 21.6662C7.89946 21.9211 7.58152 22.0642 7.25 22.0642C6.91848 22.0642 6.60054 21.9211 6.36612 21.6662C6.1317 21.4114 6 21.0657 6 20.7053C6 20.3448 6.1317 19.9992 6.36612 19.7443C6.60054 19.4895 6.91848 19.3463 7.25 19.3463C7.58152 19.3463 7.89946 19.4895 8.13388 19.7443C8.3683 19.9992 8.5 20.3448 8.5 20.7053ZM8.5 15.2694C8.5 15.6298 8.3683 15.9755 8.13388 16.2303C7.89946 16.4852 7.58152 16.6283 7.25 16.6283C6.91848 16.6283 6.60054 16.4852 6.36612 16.2303C6.1317 15.9755 6 15.6298 6 15.2694C6 14.909 6.1317 14.5633 6.36612 14.3084C6.60054 14.0536 6.91848 13.9104 7.25 13.9104C7.58152 13.9104 7.89946 14.0536 8.13388 14.3084C8.3683 14.5633 8.5 14.909 8.5 15.2694Z" fill="#4958E5"/>
<defs>
<linearGradient id="paint0_linear_27_102" x1="13.5" y1="3.03857" x2="13.5" y2="27.5001" gradientUnits="userSpaceOnUse">
<stop stop-color="#19D2C7"/>
<stop offset="1" stop-color="#4958E5"/>
</linearGradient>
<linearGradient id="paint1_linear_27_102" x1="13.5" y1="1" x2="13.5" y2="9.83333" gradientUnits="userSpaceOnUse">
<stop stop-color="#19D2C7"/>
<stop offset="1" stop-color="#4958E5"/>
</linearGradient>
</defs>
</svg>
