<svg width="28" height="26" viewBox="0 0 28 26" fill="none" xmlns="http://www.w3.org/2000/svg">
<path d="M13.1133 11.6928C15.8882 11.6928 18.1378 9.60396 18.1378 7.02725C18.1378 4.45053 15.8882 2.36169 13.1133 2.36169C10.3384 2.36169 8.08887 4.45053 8.08887 7.02725C8.08887 9.60396 10.3384 11.6928 13.1133 11.6928Z" fill="#303FCE"/>
<path d="M16.3335 20.2222H21.7779V21.2333H16.3335V20.2222Z" fill="#303FCE"/>
<path d="M11.6665 21.6667V23.8334C11.6665 24.0249 11.7484 24.2086 11.8943 24.3441C12.0401 24.4795 12.238 24.5556 12.4442 24.5556H25.6665C25.8727 24.5556 26.0706 24.4795 26.2164 24.3441C26.3623 24.2086 26.4442 24.0249 26.4442 23.8334V16.6112C26.4442 16.4196 26.3623 16.2359 26.2164 16.1005C26.0706 15.965 25.8727 15.8889 25.6665 15.8889H20.222V14.8273C20.222 14.6357 20.1401 14.452 19.9942 14.3166C19.8484 14.1811 19.6505 14.105 19.4442 14.105C19.238 14.105 19.0401 14.1811 18.8943 14.3166C18.7484 14.452 18.6665 14.6357 18.6665 14.8273V15.8889H17.1109V13.3034C15.7892 13.1029 14.4523 13.0015 13.1131 13C10.1597 12.9884 7.23946 13.5776 4.55757 14.7262C4.11617 14.9196 3.74379 15.2265 3.48461 15.6106C3.22543 15.9946 3.09033 16.4396 3.09535 16.8928V21.6667H11.6665ZM24.8887 23.1112H13.222V17.3334H18.6665V17.6367C18.6665 17.8283 18.7484 18.012 18.8943 18.1474C19.0401 18.2828 19.238 18.3589 19.4442 18.3589C19.6505 18.3589 19.8484 18.2828 19.9942 18.1474C20.1401 18.012 20.222 17.8283 20.222 17.6367V17.3334H24.8887V23.1112Z" fill="#303FCE"/>
</svg>
