<svg width="24" height="23" viewBox="0 0 24 23" fill="none" xmlns="http://www.w3.org/2000/svg">
<g clip-path="url(#clip0_27_113)">
<path d="M24 20.125L19.5 23V21.5625H12.375L15.375 18.6875H19.5V17.25L24 20.125ZM0 2.875L4.5 0V1.4375H11.625L8.625 4.3125H4.5V5.75L0 2.875ZM14.61 0L0 14.0012L9.39 23L24 8.99875L14.61 0ZM2.085 14.0012L14.61 1.99812L21.915 8.99875L9.39 21.0019L2.085 14.0012Z" fill="url(#paint0_linear_27_113)"/>
<path d="M6.25508 14.0013L5.20508 15.0075L8.34008 18.0119L9.39008 17.0057L10.5001 17.9975L14.6101 14.0013C13.9144 14.6485 12.9809 15.0075 12.0114 15.0007C11.0418 14.9938 10.114 14.6217 9.42834 13.9646C8.74273 13.3076 8.35439 12.4184 8.34723 11.4892C8.34007 10.56 8.71466 9.66546 9.39008 8.99878L5.22008 12.9375L6.25508 14.0013Z" fill="url(#paint1_linear_27_113)"/>
<path d="M18.7801 8.00682L15.6451 5.00244L14.5951 6.00869L13.5001 5.00244L9.39014 8.99869C10.0858 8.35142 11.0193 7.99243 11.9888 7.99929C12.9584 8.00616 13.8863 8.37832 14.5719 9.03536C15.2575 9.69241 15.6458 10.5816 15.653 11.5108C15.6601 12.4399 15.2855 13.3345 14.6101 14.0012L18.7801 10.0624L17.7301 9.05619L18.7801 8.00682Z" fill="url(#paint2_linear_27_113)"/>
</g>
<defs>
<linearGradient id="paint0_linear_27_113" x1="12" y1="0" x2="12" y2="23" gradientUnits="userSpaceOnUse">
<stop stop-color="#4958E5"/>
<stop offset="1" stop-color="#19D2C7"/>
</linearGradient>
<linearGradient id="paint1_linear_27_113" x1="9.90758" y1="8.99878" x2="9.90758" y2="18.0119" gradientUnits="userSpaceOnUse">
<stop stop-color="#4958E5"/>
<stop offset="1" stop-color="#19D2C7"/>
</linearGradient>
<linearGradient id="paint2_linear_27_113" x1="14.0851" y1="5.00244" x2="14.0851" y2="14.0012" gradientUnits="userSpaceOnUse">
<stop stop-color="#4958E5"/>
<stop offset="1" stop-color="#19D2C7"/>
</linearGradient>
<clipPath id="clip0_27_113">
<rect width="24" height="23" fill="white"/>
</clipPath>
</defs>
</svg>
