<svg width="22" height="22" viewBox="0 0 22 22" fill="none" xmlns="http://www.w3.org/2000/svg">
<g id="dashicons:email-alt">
<path id="Vector" d="M20.9 15.9499V6.0499C20.9 5.1369 20.163 4.3999 19.25 4.3999H3.83896C2.92596 4.3999 2.18896 5.1369 2.18896 6.0499V15.9499C2.18896 16.8629 2.92596 17.5999 3.83896 17.5999H19.25C20.163 17.5999 20.9 16.8629 20.9 15.9499ZM19.459 5.9289C19.822 6.2919 19.624 6.6659 19.426 6.8529L14.96 10.9449L19.25 15.4109C19.382 15.5649 19.47 15.8069 19.316 15.9719C19.173 16.1479 18.843 16.1369 18.7 16.0269L13.893 11.9239L11.539 14.0689L9.19596 11.9239L4.38896 16.0269C4.24597 16.1369 3.91596 16.1479 3.77296 15.9719C3.61896 15.8069 3.70696 15.5649 3.83896 15.4109L8.12896 10.9449L3.66296 6.8529C3.46496 6.6659 3.26696 6.2919 3.62996 5.9289C3.99296 5.5659 4.36696 5.7419 4.67496 6.0059L11.539 11.5499L18.414 6.0059C18.722 5.7419 19.096 5.5659 19.459 5.9289Z" fill="black" fill-opacity="0.33"/>
</g>
</svg>
