<svg width="31" height="32" viewBox="0 0 31 32" fill="none" xmlns="http://www.w3.org/2000/svg">
<path d="M10.3335 15.9997C11.7038 15.9997 13.0179 15.4378 13.9869 14.4376C14.9558 13.4374 15.5002 12.0808 15.5002 10.6663C15.5002 9.25185 14.9558 7.8953 13.9869 6.8951C13.0179 5.89491 11.7038 5.33301 10.3335 5.33301C8.96321 5.33301 7.64905 5.89491 6.68011 6.8951C5.71117 7.8953 5.16683 9.25185 5.16683 10.6663C5.16683 12.0808 5.71117 13.4374 6.68011 14.4376C7.64905 15.4378 8.96321 15.9997 10.3335 15.9997ZM21.9585 15.9997C22.9862 15.9997 23.9718 15.5782 24.6985 14.8281C25.4252 14.078 25.8335 13.0605 25.8335 11.9997C25.8335 10.9388 25.4252 9.92139 24.6985 9.17125C23.9718 8.4211 22.9862 7.99967 21.9585 7.99967C20.9308 7.99967 19.9452 8.4211 19.2185 9.17125C18.4918 9.92139 18.0835 10.9388 18.0835 11.9997C18.0835 13.0605 18.4918 14.078 19.2185 14.8281C19.9452 15.5782 20.9308 15.9997 21.9585 15.9997ZM5.48975 18.6663C4.71896 18.6663 3.97974 18.9824 3.43472 19.545C2.88969 20.1076 2.5835 20.8707 2.5835 21.6663V21.9997C2.5835 21.9997 2.5835 27.9997 10.3335 27.9997C18.0835 27.9997 18.0835 21.9997 18.0835 21.9997V21.6663C18.0835 20.8707 17.7773 20.1076 17.2323 19.545C16.6872 18.9824 15.948 18.6663 15.1772 18.6663H5.48975ZM21.9585 25.9997C20.446 25.9997 19.2873 25.7583 18.4 25.389C18.9164 24.4893 19.2405 23.486 19.3506 22.4463C19.3632 22.32 19.3714 22.1933 19.3752 22.0663V21.6663C19.3768 20.5493 18.9592 19.4751 18.2101 18.669C18.254 18.6671 18.2979 18.6662 18.3418 18.6663H25.5752C26.3288 18.6663 27.0516 18.9754 27.5845 19.5255C28.1174 20.0756 28.4168 20.8217 28.4168 21.5997C28.4168 21.5997 28.4168 25.9997 21.9585 25.9997Z" fill="url(#paint0_linear_44_334)"/>
<defs>
<linearGradient id="paint0_linear_44_334" x1="15.5002" y1="5.33301" x2="15.5002" y2="27.9997" gradientUnits="userSpaceOnUse">
<stop stop-color="#303FCE"/>
<stop offset="1" stop-color="#19D2C7"/>
</linearGradient>
</defs>
</svg>
