<svg width="39" height="32" viewBox="0 0 39 32" fill="none" xmlns="http://www.w3.org/2000/svg">
<path fill-rule="evenodd" clip-rule="evenodd" d="M19.5 2.66699V9.40566C19.5 9.97099 19.5 10.5217 19.5747 10.975C19.6576 11.4857 19.8624 12.0683 20.4523 12.5523C21.0421 13.0363 21.7523 13.2043 22.3763 13.2723C22.9288 13.3337 23.5982 13.3337 24.2873 13.3337H32.5V21.3337C32.5 25.1043 32.5 26.991 31.0716 28.1617C29.6449 29.3337 27.3455 29.3337 22.75 29.3337H16.25C11.6545 29.3337 9.35513 29.3337 7.92838 28.1617C6.5 26.991 6.5 25.1043 6.5 21.3337V10.667C6.5 6.89633 6.5 5.00966 7.92838 3.83899C9.35513 2.66699 11.6545 2.66699 16.25 2.66699H19.5ZM22.75 2.67366V9.33366C22.75 10.0003 22.7533 10.3657 22.7955 10.619V10.6283L22.8085 10.6297C23.1173 10.6643 23.5625 10.667 24.375 10.667H32.4919C32.4756 10.1177 32.422 9.75499 32.253 9.41766C32.006 8.92833 31.5364 8.54166 30.5955 7.77099L26.2795 4.22966C25.3403 3.45899 24.8706 3.07233 24.2726 2.86966C23.8615 2.72966 23.4195 2.68699 22.75 2.67366Z" fill="url(#paint0_linear_45_1321)"/>
<defs>
<linearGradient id="paint0_linear_45_1321" x1="19.5" y1="2.66699" x2="19.5" y2="29.3337" gradientUnits="userSpaceOnUse">
<stop stop-color="#303FCE"/>
<stop offset="1" stop-color="#19D2C7"/>
</linearGradient>
</defs>
</svg>
