<svg width="27" height="26" viewBox="0 0 27 26" fill="none" xmlns="http://www.w3.org/2000/svg">
<g id="ant-design:number-outlined">
<path id="Vector" d="M22.9922 10.0039C23.1082 10.0039 23.2031 9.9125 23.2031 9.80078V8.27734C23.2031 8.16563 23.1082 8.07422 22.9922 8.07422H18.668V3.85938C18.668 3.74766 18.573 3.65625 18.457 3.65625H16.7695C16.6535 3.65625 16.5586 3.74766 16.5586 3.85938V8.07422H10.5469V3.85938C10.5469 3.74766 10.452 3.65625 10.3359 3.65625H8.64844C8.53242 3.65625 8.4375 3.74766 8.4375 3.85938V8.07422H4.00781C3.8918 8.07422 3.79688 8.16563 3.79688 8.27734V9.80078C3.79688 9.9125 3.8918 10.0039 4.00781 10.0039H8.4375V15.9961H4.00781C3.8918 15.9961 3.79688 16.0875 3.79688 16.1992V17.7227C3.79688 17.8344 3.8918 17.9258 4.00781 17.9258H8.4375V22.1406C8.4375 22.2523 8.53242 22.3438 8.64844 22.3438H10.3359C10.452 22.3438 10.5469 22.2523 10.5469 22.1406V17.9258H16.5586V22.1406C16.5586 22.2523 16.6535 22.3438 16.7695 22.3438H18.457C18.573 22.3438 18.668 22.2523 18.668 22.1406V17.9258H22.9922C23.1082 17.9258 23.2031 17.8344 23.2031 17.7227V16.1992C23.2031 16.0875 23.1082 15.9961 22.9922 15.9961H18.668V10.0039H22.9922ZM16.5586 15.9961H10.5469V10.0039H16.5586V15.9961Z" fill="#303FCE"/>
</g>
</svg>
