<svg width="46" height="47" viewBox="0 0 46 47" fill="none" xmlns="http://www.w3.org/2000/svg">
<path d="M30.6666 19.5938C30.6666 21.6707 29.8589 23.6625 28.4211 25.1311C26.9834 26.5998 25.0333 27.4248 23 27.4248C20.9667 27.4248 19.0166 26.5998 17.5788 25.1311C16.141 23.6625 15.3333 21.6707 15.3333 19.5938C15.3333 17.5168 16.141 15.525 17.5788 14.0564C19.0166 12.5878 20.9667 11.7627 23 11.7627C25.0333 11.7627 26.9834 12.5878 28.4211 14.0564C29.8589 15.525 30.6666 17.5168 30.6666 19.5938Z" fill="#303FCE" fill-opacity="0.59"/>
<path fill-rule="evenodd" clip-rule="evenodd" d="M22.218 43.07C11.9954 42.6511 3.83331 34.0529 3.83331 23.5087C3.83331 12.6963 12.4142 3.93164 23 3.93164C33.5857 3.93164 42.1666 12.6963 42.1666 23.5087C42.1666 34.3211 33.5857 43.0857 23 43.0857C22.9125 43.0863 22.8249 43.0863 22.7374 43.0857C22.5639 43.0857 22.3905 43.0798 22.218 43.07ZM10.7007 35.8618C10.5574 35.4414 10.5086 34.9935 10.558 34.5513C10.6074 34.109 10.7536 33.6838 10.9859 33.3072C11.2182 32.9306 11.5305 32.6123 11.8997 32.3759C12.2689 32.1394 12.6855 31.991 13.1186 31.9415C20.5898 31.0967 25.4562 31.1731 32.8909 31.9591C33.3246 32.0052 33.7422 32.1518 34.112 32.3877C34.4818 32.6236 34.794 32.9426 35.0249 33.3204C35.2558 33.6982 35.3992 34.1248 35.4442 34.5677C35.4893 35.0107 35.4348 35.4583 35.2849 35.8765C38.4712 32.5835 40.2557 28.1386 40.25 23.5087C40.25 13.7779 32.5268 5.88934 23 5.88934C13.4732 5.88934 5.74998 13.7779 5.74998 23.5087C5.74998 28.3207 7.63886 32.6825 10.7007 35.8618Z" fill="#303FCE" fill-opacity="0.59"/>
</svg>
