<svg width="35" height="35" viewBox="0 0 35 35" fill="none" xmlns="http://www.w3.org/2000/svg">
<path d="M10.2188 17.5C10.2188 17.2099 10.334 16.9317 10.5391 16.7266C10.7442 16.5214 11.0224 16.4062 11.3125 16.4062H16.4065V11.3123C16.4065 11.0222 16.5217 10.744 16.7268 10.5389C16.9319 10.3337 17.2101 10.2185 17.5002 10.2185C17.7903 10.2185 18.0685 10.3337 18.2736 10.5389C18.4787 10.744 18.594 11.0222 18.594 11.3123V16.4062H23.6879C23.978 16.4062 24.2562 16.5214 24.4613 16.7266C24.6664 16.9317 24.7817 17.2099 24.7817 17.5C24.7817 17.79 24.6664 18.0682 24.4613 18.2734C24.2562 18.4785 23.978 18.5937 23.6879 18.5937H18.594V23.6877C18.594 23.9778 18.4787 24.256 18.2736 24.4611C18.0685 24.6662 17.7903 24.7814 17.5002 24.7814C17.2101 24.7814 16.9319 24.6662 16.7268 24.4611C16.5217 24.256 16.4065 23.9778 16.4065 23.6877V18.5937H11.3125C11.0224 18.5937 10.7442 18.4785 10.5391 18.2734C10.334 18.0682 10.2188 17.79 10.2188 17.5Z" fill="url(#paint0_linear_27_82)"/>
<path fill-rule="evenodd" clip-rule="evenodd" d="M10.6705 5.49641C15.2095 4.99322 19.7902 4.99322 24.3292 5.49641C26.9936 5.79391 29.1447 7.89245 29.4567 10.5714C29.9963 15.1754 29.9963 19.826 29.4567 24.43C29.1432 27.1089 26.9922 29.206 24.3292 29.5049C19.7902 30.0082 15.2095 30.0082 10.6705 29.5049C8.00612 29.206 5.85508 27.1089 5.543 24.43C5.00455 19.8261 5.00455 15.1752 5.543 10.5714C5.85508 7.89245 8.00758 5.79391 10.6705 5.49641ZM24.0872 7.66932C19.709 7.18404 15.2907 7.18404 10.9126 7.66932C10.1021 7.75924 9.3456 8.11977 8.7653 8.69266C8.18499 9.26556 7.81478 10.0174 7.71445 10.8266C7.1958 15.2614 7.1958 19.7414 7.71445 24.1762C7.81508 24.9852 8.18543 25.7367 8.76571 26.3093C9.34599 26.8819 10.1023 27.2422 10.9126 27.332C15.254 27.8162 19.7457 27.8162 24.0872 27.332C24.8972 27.2419 25.6532 26.8814 26.2331 26.3088C26.8131 25.7363 27.1833 24.985 27.2838 24.1762C27.8025 19.7415 27.8025 15.2614 27.2838 10.8266C27.183 10.0181 26.8127 9.26714 26.2327 8.69486C25.6528 8.12257 24.8969 7.76233 24.0872 7.67224" fill="url(#paint1_linear_27_82)"/>
<defs>
<linearGradient id="paint0_linear_27_82" x1="17.5002" y1="10.2185" x2="17.5002" y2="24.7814" gradientUnits="userSpaceOnUse">
<stop stop-color="#19D2C7"/>
<stop offset="1" stop-color="#4958E5"/>
</linearGradient>
<linearGradient id="paint1_linear_27_82" x1="17.5003" y1="5.11902" x2="17.5003" y2="29.8824" gradientUnits="userSpaceOnUse">
<stop stop-color="#19D2C7"/>
<stop offset="1" stop-color="#4958E5"/>
</linearGradient>
</defs>
</svg>
