<svg width="24" height="24" viewBox="0 0 24 24" fill="none" xmlns="http://www.w3.org/2000/svg">
<g id="solar:lock-password-unlocked-bold">
<path id="Vector" fill-rule="evenodd" clip-rule="evenodd" d="M6.75 7.99984C6.74826 6.72082 7.21348 5.48515 8.05833 4.52487C8.90317 3.56458 10.0695 2.94574 11.3383 2.78455C12.6072 2.62335 13.8912 2.93089 14.9493 3.64941C16.0074 4.36793 16.7669 5.44801 17.085 6.68684C17.1391 6.87443 17.2641 7.03355 17.4336 7.13039C17.6031 7.22724 17.8037 7.25417 17.9928 7.20548C18.1818 7.15678 18.3444 7.0363 18.446 6.86962C18.5477 6.70293 18.5803 6.5032 18.537 6.31284C18.1273 4.72094 17.1508 3.33323 15.7908 2.4101C14.4307 1.48696 12.7805 1.09185 11.1498 1.29889C9.51912 1.50593 8.02003 2.3009 6.93379 3.53463C5.84756 4.76836 5.24885 6.35607 5.25 7.99984V10.0548C4.135 10.1378 3.41 10.3478 2.879 10.8788C2 11.7568 2 13.1718 2 15.9998C2 18.8278 2 20.2428 2.879 21.1208C3.757 21.9998 5.172 21.9998 8 21.9998H16C18.828 21.9998 20.243 21.9998 21.121 21.1208C22 20.2428 22 18.8278 22 15.9998C22 13.1718 22 11.7568 21.121 10.8788C20.243 9.99984 18.828 9.99984 16 9.99984H8C7.548 9.99984 7.133 9.99984 6.75 10.0038V7.99984ZM8 16.9998C8.26522 16.9998 8.51957 16.8945 8.70711 16.7069C8.89464 16.5194 9 16.2651 9 15.9998C9 15.7346 8.89464 15.4803 8.70711 15.2927C8.51957 15.1052 8.26522 14.9998 8 14.9998C7.73478 14.9998 7.48043 15.1052 7.29289 15.2927C7.10536 15.4803 7 15.7346 7 15.9998C7 16.2651 7.10536 16.5194 7.29289 16.7069C7.48043 16.8945 7.73478 16.9998 8 16.9998ZM12 16.9998C12.2652 16.9998 12.5196 16.8945 12.7071 16.7069C12.8946 16.5194 13 16.2651 13 15.9998C13 15.7346 12.8946 15.4803 12.7071 15.2927C12.5196 15.1052 12.2652 14.9998 12 14.9998C11.7348 14.9998 11.4804 15.1052 11.2929 15.2927C11.1054 15.4803 11 15.7346 11 15.9998C11 16.2651 11.1054 16.5194 11.2929 16.7069C11.4804 16.8945 11.7348 16.9998 12 16.9998ZM17 15.9998C17 16.2651 16.8946 16.5194 16.7071 16.7069C16.5196 16.8945 16.2652 16.9998 16 16.9998C15.7348 16.9998 15.4804 16.8945 15.2929 16.7069C15.1054 16.5194 15 16.2651 15 15.9998C15 15.7346 15.1054 15.4803 15.2929 15.2927C15.4804 15.1052 15.7348 14.9998 16 14.9998C16.2652 14.9998 16.5196 15.1052 16.7071 15.2927C16.8946 15.4803 17 15.7346 17 15.9998Z" fill="#303FCE"/>
</g>
</svg>
