<svg width="15" height="16" viewBox="0 0 15 16" fill="none" xmlns="http://www.w3.org/2000/svg">
<path fill-rule="evenodd" clip-rule="evenodd" d="M2.7907 5.99293V5.02326C2.7907 3.69101 3.28685 2.41332 4.17002 1.47128C5.05319 0.529234 6.25102 0 7.5 0C8.74898 0 9.94681 0.529234 10.83 1.47128C11.7131 2.41332 12.2093 3.69101 12.2093 5.02326V5.99293C12.3677 6.00484 12.5163 6.01972 12.6572 6.04056C13.2851 6.12986 13.814 6.32335 14.234 6.7706C14.654 7.2186 14.834 7.7827 14.9191 8.45247C15 9.09767 15 9.91851 15 10.9358V11.0177C15 12.035 15 12.8558 14.9191 13.501C14.834 14.1708 14.654 14.7349 14.234 15.1829C13.814 15.6309 13.2851 15.8229 12.6572 15.9137C12.0523 16 11.2828 16 10.3291 16H4.67093C3.71721 16 2.94767 16 2.34279 15.9137C1.71488 15.8229 1.18605 15.6309 0.766047 15.1829C0.346047 14.7349 0.166047 14.1708 0.0816279 13.501C-1.03962e-08 12.8558 0 12.035 0 11.0177V10.9358C0 9.91851 -1.03962e-08 9.09767 0.0816279 8.45247C0.165349 7.7827 0.346744 7.2186 0.766047 6.7706C1.18605 6.3226 1.71488 6.1306 2.34279 6.04056C2.49155 6.01931 2.64093 6.00342 2.7907 5.99293ZM3.83721 5.02326C3.83721 3.98706 4.22311 2.99331 4.91002 2.26061C5.59692 1.52791 6.52857 1.11628 7.5 1.11628C8.47143 1.11628 9.40308 1.52791 10.09 2.26061C10.7769 2.99331 11.1628 3.98706 11.1628 5.02326V5.95572C10.9026 5.95349 10.6242 5.95349 10.3291 5.95349H4.67093C4.37581 5.95349 4.09814 5.95349 3.83721 5.95572V5.02326ZM1.50628 7.56019C1.69953 7.35405 1.97023 7.22009 2.48302 7.14642C3.00907 7.07126 3.70814 7.06977 4.7093 7.06977H10.2907C11.2919 7.06977 11.9902 7.07126 12.5177 7.14642C13.0298 7.22009 13.3005 7.35479 13.4937 7.56019C13.687 7.76633 13.8126 8.05507 13.8816 8.60205C13.9521 9.16391 13.9535 9.90884 13.9535 10.9767C13.9535 12.0447 13.9521 12.7896 13.8816 13.3522C13.8126 13.8984 13.6863 14.1872 13.4937 14.3933C13.3005 14.5994 13.0298 14.7334 12.517 14.8071C11.9902 14.8822 11.2919 14.8837 10.2907 14.8837H4.7093C3.70814 14.8837 3.00907 14.8822 2.48233 14.8071C1.97023 14.7334 1.69953 14.5987 1.50628 14.3933C1.31302 14.1872 1.18744 13.8984 1.11837 13.3514C1.04791 12.7896 1.04651 12.0447 1.04651 10.9767C1.04651 9.90884 1.04791 9.16316 1.11837 8.6013C1.18744 8.05507 1.31372 7.76633 1.50628 7.56019Z" fill="#20242F" fill-opacity="0.4"/>
</svg>
