<svg width="23" height="27" viewBox="0 0 23 27" fill="none" xmlns="http://www.w3.org/2000/svg">
<path fill-rule="evenodd" clip-rule="evenodd" d="M17 0.5C20.3363 0.5 23.5325 3.887 22.5938 8.309C21.6469 12.7448 19.7238 16.7935 17.0258 20.0315C14.3277 23.2694 10.9539 25.5775 7.2575 26.714C3.5725 27.8375 0.75 24.002 0.75 20V18.5C0.75 16.8095 1.87625 15.5825 3.125 15.434C4.14875 15.3128 5.15365 15.0225 6.11125 14.5715C6.33752 14.4649 6.58479 14.4397 6.82279 14.4991C7.06079 14.5585 7.27919 14.6999 7.45125 14.906L8.705 16.409C10.9274 14.915 12.7625 12.7129 14.0075 10.046L12.755 8.54C12.5833 8.33353 12.4654 8.07145 12.4159 7.78585C12.3664 7.50025 12.3874 7.20352 12.4762 6.932C12.8522 5.7824 13.0941 4.57601 13.195 3.347C13.3188 1.853 14.3413 0.5 15.75 0.5H17Z" fill="#303FCE"/>
</svg>
