<svg width="22" height="22" viewBox="0 0 22 22" fill="none" xmlns="http://www.w3.org/2000/svg">
<g clip-path="url(#clip0_45_872)">
<path d="M4.125 10.1475H17.875V11.8662H4.125V10.1475Z" fill="#FFC107"/>
<path d="M11 0.687909C8.17438 0.598935 5.42895 1.63495 3.36653 3.56846C1.30412 5.50197 0.0933192 8.17493 0 11.0004C0.0933192 13.8259 1.30412 16.4988 3.36653 18.4324C5.42895 20.3659 8.17438 21.4019 11 21.3129C13.8256 21.4019 16.5711 20.3659 18.6335 18.4324C20.6959 16.4988 21.9067 13.8259 22 11.0004C21.9067 8.17493 20.6959 5.50197 18.6335 3.56846C16.5711 1.63495 13.8256 0.598935 11 0.687909ZM11 19.5942C8.63111 19.6797 6.32474 18.8237 4.58541 17.2132C2.84607 15.6027 1.81537 13.3689 1.71875 11.0004C1.81537 8.63194 2.84607 6.39814 4.58541 4.78765C6.32474 3.17716 8.63111 2.32107 11 2.40666C13.3689 2.32107 15.6753 3.17716 17.4146 4.78765C19.1539 6.39814 20.1846 8.63194 20.2812 11.0004C20.1846 13.3689 19.1539 15.6027 17.4146 17.2132C15.6753 18.8237 13.3689 19.6797 11 19.5942Z" fill="#FFC107"/>
</g>
<defs>
<clipPath id="clip0_45_872">
<rect width="22" height="22" fill="white"/>
</clipPath>
</defs>
</svg>
