<svg width="30" height="32" viewBox="0 0 30 32" fill="none" xmlns="http://www.w3.org/2000/svg">
<path d="M6.38942 21.5887H4.08817C4.00383 21.5888 3.92029 21.5712 3.84234 21.5369C3.76439 21.5025 3.69356 21.4521 3.63392 21.3885C3.57429 21.3249 3.52701 21.2493 3.49481 21.1662C3.46262 21.0831 3.44613 20.9939 3.44629 20.904V5.15665C3.44629 4.77665 3.73254 4.47198 4.08817 4.47198H25.9119C26.2682 4.47198 26.5538 4.77732 26.5538 5.15665V20.904C26.5538 21.284 26.2675 21.5887 25.9119 21.5887H16.41" stroke="black" stroke-opacity="0.24" stroke-width="2" stroke-linecap="round" stroke-linejoin="round"/>
<path d="M11.4963 17.9954C13.6233 17.9954 15.3475 16.1561 15.3475 13.8874C15.3475 11.6186 13.6233 9.77936 11.4963 9.77936C9.36928 9.77936 7.64502 11.6186 7.64502 13.8874C7.64502 16.1561 9.36928 17.9954 11.4963 17.9954Z" stroke="black" stroke-opacity="0.24" stroke-width="2" stroke-linecap="round" stroke-linejoin="round"/>
<path d="M11.0144 4.47198V9.80999M18.5663 4.47198V21.5887M26.5538 13.03H15.2675M3.44629 13.03H7.68754M18.6094 17.236H26.5538M5.04004 27.528H17.7994C18.4219 16.0967 4.52066 15.6087 5.04004 27.528Z" stroke="black" stroke-opacity="0.24" stroke-width="2" stroke-linecap="round" stroke-linejoin="round"/>
</svg>
