<svg width="22" height="22" viewBox="0 0 22 22" fill="none" xmlns="http://www.w3.org/2000/svg">
<g id="nimbus:stop" clip-path="url(#clip0_37_2)">
<path id="Vector" d="M4.125 10.1475H17.875V11.8662H4.125V10.1475Z" fill="#FFC107"/>
<path id="Vector_2" d="M11 0.687421C8.17438 0.598447 5.42895 1.63446 3.36653 3.56797C1.30412 5.50149 0.0933192 8.17444 0 10.9999C0.0933192 13.8254 1.30412 16.4984 3.36653 18.4319C5.42895 20.3654 8.17438 21.4014 11 21.3124C13.8256 21.4014 16.5711 20.3654 18.6335 18.4319C20.6959 16.4984 21.9067 13.8254 22 10.9999C21.9067 8.17444 20.6959 5.50149 18.6335 3.56797C16.5711 1.63446 13.8256 0.598447 11 0.687421ZM11 19.5937C8.63111 19.6793 6.32474 18.8232 4.58541 17.2127C2.84607 15.6022 1.81537 13.3684 1.71875 10.9999C1.81537 8.63145 2.84607 6.39765 4.58541 4.78716C6.32474 3.17667 8.63111 2.32058 11 2.40617C13.3689 2.32058 15.6753 3.17667 17.4146 4.78716C19.1539 6.39765 20.1846 8.63145 20.2812 10.9999C20.1846 13.3684 19.1539 15.6022 17.4146 17.2127C15.6753 18.8232 13.3689 19.6793 11 19.5937Z" fill="#FFC107"/>
</g>
<defs>
<clipPath id="clip0_37_2">
<rect width="22" height="22" fill="white"/>
</clipPath>
</defs>
</svg>
