<svg width="20" height="22" viewBox="0 0 20 22" fill="none" xmlns="http://www.w3.org/2000/svg">
<path d="M18.0407 18.2188C16.8508 15.956 15.0172 14.3335 12.8774 13.5644C13.9358 12.8713 14.7582 11.8151 15.2182 10.5581C15.6781 9.30113 15.7503 7.9128 15.4235 6.60634C15.0968 5.29988 14.3892 4.14753 13.4094 3.32625C12.4296 2.50497 11.2318 2.06018 10 2.06018C8.76821 2.06018 7.57044 2.50497 6.59067 3.32625C5.6109 4.14753 4.90331 5.29988 4.57654 6.60634C4.24978 7.9128 4.32193 9.30113 4.78189 10.5581C5.24186 11.8151 6.06422 12.8713 7.12268 13.5644C4.98284 14.3327 3.14925 15.9552 1.9594 18.2188C1.91577 18.297 1.88683 18.3841 1.87429 18.4749C1.86174 18.5656 1.86585 18.6583 1.88638 18.7472C1.9069 18.8362 1.94341 18.9198 1.99377 18.993C2.04413 19.0662 2.10731 19.1276 2.17958 19.1735C2.25185 19.2194 2.33175 19.249 2.41457 19.2604C2.49738 19.2718 2.58143 19.2648 2.66176 19.2399C2.74209 19.215 2.81708 19.1726 2.88228 19.1153C2.94749 19.058 3.00161 18.9869 3.04143 18.9063C4.51331 16.1081 7.11487 14.4375 10 14.4375C12.8852 14.4375 15.4867 16.1081 16.9586 18.9063C16.9985 18.9869 17.0526 19.058 17.1178 19.1153C17.183 19.1726 17.258 19.215 17.3383 19.2399C17.4186 19.2648 17.5027 19.2718 17.5855 19.2604C17.6683 19.249 17.7482 19.2194 17.8205 19.1735C17.8927 19.1276 17.9559 19.0662 18.0063 18.993C18.0566 18.9198 18.0932 18.8362 18.1137 18.7472C18.1342 18.6583 18.1383 18.5656 18.1258 18.4749C18.1132 18.3841 18.0843 18.297 18.0407 18.2188ZM5.62503 8.25002C5.62503 7.2982 5.88162 6.36775 6.36235 5.57634C6.84308 4.78493 7.52636 4.16809 8.32579 3.80385C9.12522 3.4396 10.0049 3.3443 10.8535 3.52999C11.7022 3.71568 12.4818 4.17403 13.0936 4.84707C13.7055 5.52011 14.1222 6.37761 14.291 7.31115C14.4598 8.24468 14.3731 9.21231 14.042 10.0917C13.7109 10.9711 13.1501 11.7227 12.4306 12.2515C11.7112 12.7803 10.8653 13.0625 10 13.0625C8.84009 13.0612 7.72801 12.5537 6.90781 11.6515C6.0876 10.7492 5.62627 9.52595 5.62503 8.25002Z" fill="#20242F" fill-opacity="0.4"/>
</svg>
