<svg width="30" height="32" viewBox="0 0 30 32" fill="none" xmlns="http://www.w3.org/2000/svg">
<g clip-path="url(#clip0_32_142)">
<path fill-rule="evenodd" clip-rule="evenodd" d="M23.605 19.2921C23.7648 18.9982 24.0238 18.7806 24.329 18.6835C24.6342 18.5864 24.9626 18.6173 25.2472 18.7697C25.5318 18.9222 25.7511 19.1848 25.8604 19.5039C25.9696 19.823 25.9605 20.1745 25.835 20.4867L25.77 20.6254L25.3512 21.3987C25.6008 21.7114 25.804 22.0631 25.9538 22.4414L26.0363 22.6667H26.875C27.1936 22.6671 27.5 22.7973 27.7317 23.0305C27.9634 23.2638 28.1028 23.5827 28.1215 23.9219C28.1401 24.2612 28.0367 24.5953 27.8322 24.8559C27.6277 25.1165 27.3376 25.2839 27.0213 25.3241L26.875 25.3334H26.0363C25.9139 25.7032 25.7412 26.0519 25.5238 26.3681L25.3512 26.6001L25.77 27.3747C25.9307 27.6694 25.9795 28.0185 25.9064 28.3504C25.8333 28.6822 25.6438 28.9716 25.3769 29.159C25.1099 29.3464 24.7858 29.4177 24.4712 29.3581C24.1565 29.2986 23.8752 29.1127 23.685 28.8387L23.605 28.7081L23.1862 27.9347C22.82 28.0067 22.4488 28.0187 22.0863 27.9747L21.815 27.9321L21.395 28.7081C21.2352 29.0019 20.9762 29.2196 20.671 29.3167C20.3658 29.4137 20.0374 29.3829 19.7528 29.2304C19.4682 29.078 19.2489 28.8154 19.1396 28.4963C19.0304 28.1772 19.0395 27.8256 19.165 27.5134L19.23 27.3747L19.6488 26.6001C19.3996 26.2881 19.1964 25.9374 19.0463 25.5601L18.9637 25.3334H18.125C17.8064 25.333 17.5 25.2029 17.2683 24.9696C17.0366 24.7363 16.8972 24.4175 16.8785 24.0782C16.8599 23.739 16.9633 23.4049 17.1678 23.1443C17.3723 22.8837 17.6624 22.7162 17.9788 22.6761L18.125 22.6667H18.965C19.0874 22.2969 19.26 21.9483 19.4775 21.6321L19.6488 21.4001L19.23 20.6254C19.0693 20.3308 19.0205 19.9817 19.0936 19.6498C19.1667 19.318 19.3562 19.0286 19.6231 18.8412C19.8901 18.6537 20.2142 18.5825 20.5288 18.642C20.8435 18.7016 21.1248 18.8875 21.315 19.1614L21.395 19.2921L21.8138 20.0654C22.18 19.9934 22.5512 19.9814 22.9137 20.0254L23.185 20.0667L23.605 19.2921ZM13.75 17.3334C14.3088 17.3334 14.8588 17.3654 15.395 17.4267C15.7247 17.4641 16.027 17.6395 16.2354 17.9146C16.4438 18.1896 16.5412 18.5417 16.5063 18.8934C16.4713 19.2451 16.3068 19.5675 16.0489 19.7898C15.791 20.0121 15.4609 20.1161 15.1312 20.0787C14.6812 20.0267 14.2188 20.0001 13.75 20.0001C11.2212 20.0001 8.94625 20.7867 7.33 21.8387C6.52125 22.3641 5.91125 22.9347 5.5175 23.4681C5.1125 24.0147 5 24.4281 5 24.6667C5 24.8294 5.04625 25.0014 5.31875 25.2347C5.63 25.5014 6.17125 25.7774 6.99875 26.0107C8.64625 26.4774 11.0138 26.6667 13.75 26.6667L14.5725 26.6601C14.904 26.6553 15.2237 26.7912 15.4613 27.0379C15.6989 27.2845 15.8349 27.6218 15.8394 27.9754C15.8439 28.329 15.7164 28.6701 15.4852 28.9235C15.2539 29.1769 14.9378 29.322 14.6063 29.3267L13.75 29.3334C10.9637 29.3334 8.33125 29.1467 6.35875 28.5894C5.3775 28.3121 4.45375 27.9147 3.75375 27.3147C3.0125 26.6801 2.5 25.7934 2.5 24.6667C2.5 23.6174 2.9475 22.6361 3.555 21.8147C4.1725 20.9814 5.02625 20.2147 6.0275 19.5614C8.03125 18.2601 10.7563 17.3334 13.75 17.3334ZM22.5 22.6667C22.1685 22.6667 21.8505 22.8072 21.6161 23.0573C21.3817 23.3073 21.25 23.6465 21.25 24.0001C21.25 24.3537 21.3817 24.6928 21.6161 24.9429C21.8505 25.1929 22.1685 25.3334 22.5 25.3334C22.8315 25.3334 23.1495 25.1929 23.3839 24.9429C23.6183 24.6928 23.75 24.3537 23.75 24.0001C23.75 23.6465 23.6183 23.3073 23.3839 23.0573C23.1495 22.8072 22.8315 22.6667 22.5 22.6667ZM13.75 2.66675C15.4076 2.66675 16.9973 3.36913 18.1694 4.61937C19.3415 5.86961 20 7.5653 20 9.33341C20 11.1015 19.3415 12.7972 18.1694 14.0475C16.9973 15.2977 15.4076 16.0001 13.75 16.0001C12.0924 16.0001 10.5027 15.2977 9.33058 14.0475C8.15848 12.7972 7.5 11.1015 7.5 9.33341C7.5 7.5653 8.15848 5.86961 9.33058 4.61937C10.5027 3.36913 12.0924 2.66675 13.75 2.66675ZM13.75 5.33341C13.2575 5.33341 12.7699 5.43688 12.3149 5.6379C11.86 5.83892 11.4466 6.13355 11.0983 6.50499C10.7501 6.87642 10.4739 7.31738 10.2855 7.80268C10.097 8.28798 10 8.80813 10 9.33341C10 9.8587 10.097 10.3788 10.2855 10.8641C10.4739 11.3495 10.7501 11.7904 11.0983 12.1618C11.4466 12.5333 11.86 12.8279 12.3149 13.0289C12.7699 13.23 13.2575 13.3334 13.75 13.3334C14.7446 13.3334 15.6984 12.912 16.4017 12.1618C17.1049 11.4117 17.5 10.3943 17.5 9.33341C17.5 8.27255 17.1049 7.25513 16.4017 6.50499C15.6984 5.75484 14.7446 5.33341 13.75 5.33341Z" fill="url(#paint0_linear_32_142)"/>
</g>
<defs>
<linearGradient id="paint0_linear_32_142" x1="15.3118" y1="2.66675" x2="15.3118" y2="29.3786" gradientUnits="userSpaceOnUse">
<stop stop-color="#19D2C7"/>
<stop offset="1" stop-color="#303FCE"/>
</linearGradient>
<clipPath id="clip0_32_142">
<rect width="30" height="32" fill="white"/>
</clipPath>
</defs>
</svg>
