<svg width="21" height="26" viewBox="0 0 21 26" fill="none" xmlns="http://www.w3.org/2000/svg">
<path id="Vector" d="M7.00004 0L4.66669 2.89256L2.33335 5.78513L4.66669 8.67769L7.00004 11.5703L7.81671 10.5579L8.63338 9.54546L7.11671 7.66529L5.60003 5.78513L7.11671 3.90496L8.63338 2.02479L7.81671 1.0124L7.00004 0ZM14.0001 0L13.1834 1.0124L12.3667 2.02479L13.8834 3.90496L15.4001 5.78513L13.8834 7.66529L12.3667 9.54546L13.1834 10.5579L14.0001 11.5703L16.3334 8.67769L18.6668 5.78513L16.3334 2.89256L14.0001 0ZM20.9733 21.8244L20.5206 19.6087C20.4916 19.4674 20.4399 19.3349 20.3685 19.2191C20.2971 19.1032 20.2076 19.0065 20.1053 18.9347C20.0024 18.8618 19.8889 18.8151 19.7713 18.7972C19.6537 18.7793 19.5344 18.7907 19.4204 18.8306L14.1097 20.6876L10.5001 18.8017L15.0676 17.351C15.3794 17.0062 15.6053 16.5581 15.7186 16.0595L15.3604 14.4628L5.83337 15.9091H0V24.5868H5.83337L11.0309 25.981C11.3135 26.0129 11.598 26.0046 11.8791 25.9564L20.3491 23.1304C20.5713 23.0566 20.7614 22.8781 20.8788 22.6329C20.9367 22.5122 20.9749 22.3786 20.9911 22.2396C21.0073 22.1006 21.0013 21.9605 20.9733 21.8244ZM3.50002 23.1405H1.16667V17.3554H3.50002V23.1405ZM11.5757 24.5608C11.5232 24.5777 11.4691 24.5865 11.4147 24.5868C11.3696 24.587 11.3247 24.5812 11.2806 24.5694L5.83337 23.087V17.3843L14.3839 16.0711L8.16671 18.8017L13.6746 22.0298L14.0444 22.2134L14.4271 22.0789L19.4624 20.3188L19.7704 21.8258L11.5757 24.5608Z" fill="#303FCE"/>
</svg>
