<svg width="18" height="18" viewBox="0 0 18 18" fill="none" xmlns="http://www.w3.org/2000/svg">
<path id="Vector" d="M7.00032 0.750353C7.0004 0.599194 6.95479 0.45154 6.86948 0.326751C6.78418 0.201961 6.66316 0.10586 6.52229 0.0510469C6.38142 -0.00376638 6.22727 -0.0147335 6.08006 0.0195831C5.93285 0.0538997 5.79944 0.131898 5.69732 0.243353L0.197324 6.24335C0.0988898 6.35066 0.0338199 6.48429 0.0100557 6.62795C-0.0137084 6.77161 0.00486108 6.91909 0.063498 7.05237C0.122135 7.18566 0.218303 7.29899 0.340266 7.37854C0.462229 7.45809 0.604711 7.50042 0.750324 7.50035H16.7503C16.9492 7.50035 17.14 7.42134 17.2807 7.28068C17.4213 7.14003 17.5003 6.94927 17.5003 6.75035C17.5003 6.55144 17.4213 6.36068 17.2807 6.22002C17.14 6.07937 16.9492 6.00035 16.7503 6.00035H7.00032V0.750353ZM10.5003 16.7504V11.5004H0.750324C0.551412 11.5004 0.360646 11.4213 0.219994 11.2807C0.0793417 11.14 0.000324211 10.9493 0.000324211 10.7504C0.000324211 10.5514 0.0793417 10.3607 0.219994 10.22C0.360646 10.0794 0.551412 10.0004 0.750324 10.0004H16.7503C16.8959 10.0003 17.0384 10.0426 17.1604 10.1222C17.2823 10.2017 17.3785 10.3151 17.4372 10.4483C17.4958 10.5816 17.5144 10.7291 17.4906 10.8728C17.4668 11.0164 17.4018 11.1501 17.3033 11.2574L11.8033 17.2574C11.7012 17.3688 11.5678 17.4468 11.4206 17.4811C11.2734 17.5154 11.1192 17.5045 10.9784 17.4497C10.8375 17.3948 10.7165 17.2987 10.6312 17.174C10.5459 17.0492 10.5003 16.9015 10.5003 16.7504Z" fill="#303FCE"/>
</svg>
