<svg width="22" height="21" viewBox="0 0 22 21" fill="none" xmlns="http://www.w3.org/2000/svg">
<g clip-path="url(#clip0_45_987)">
<path d="M15.3939 11.8997C15.5694 11.452 15.6584 10.9777 15.6567 10.4997C15.6567 9.43841 15.215 8.42057 14.4288 7.67011C13.6426 6.91965 12.5763 6.49805 11.4644 6.49805C10.9699 6.4986 10.4794 6.58355 10.0161 6.74888L11 7.71721C11.1496 7.69437 11.3008 7.68267 11.4522 7.68221C12.2384 7.68065 12.9932 7.97606 13.552 8.50395C14.1108 9.03184 14.428 9.74932 14.4344 10.4997C14.4339 10.6443 14.4217 10.7886 14.3978 10.9314L15.3939 11.8997Z" fill="black" fill-opacity="0.43"/>
<path d="M20.955 10.2259C18.8955 6.59174 15.2838 4.39258 11.2872 4.39258C10.199 4.39502 9.11814 4.56238 8.08496 4.88841L9.06885 5.83341C9.79354 5.65464 10.5387 5.56254 11.2872 5.55924C14.7277 5.55924 17.8566 7.39091 19.7205 10.4767C19.0368 11.6216 18.1304 12.6313 17.05 13.4517L17.9177 14.2801C19.1681 13.3172 20.2066 12.1277 20.9733 10.7801L21.1322 10.5001L20.955 10.2259Z" fill="black" fill-opacity="0.43"/>
<path d="M2.97626 3.3721L5.70181 5.97376C3.97904 7.03258 2.57103 8.49713 1.61348 10.2263L1.45459 10.5004L1.61348 10.7804C3.67292 14.4146 7.28459 16.6138 11.2813 16.6138C12.8412 16.6135 14.3809 16.2764 15.7851 15.6279L18.8407 18.5446L19.9101 17.6696L4.02126 2.50293L2.97626 3.3721ZM8.93459 9.0596L12.9985 12.9388C12.5393 13.2101 12.0107 13.3554 11.4707 13.3588C11.0783 13.3588 10.6898 13.2847 10.3275 13.1409C9.96526 12.997 9.63636 12.7862 9.35976 12.5205C9.08317 12.2549 8.86433 11.9396 8.71585 11.5929C8.56737 11.2463 8.49217 10.875 8.49459 10.5004C8.50148 9.99092 8.65358 9.49283 8.93459 9.0596ZM8.04848 8.21376C7.47674 8.98341 7.20877 9.92135 7.29199 10.8615C7.37522 11.8017 7.80428 12.6834 8.50321 13.3505C9.20214 14.0177 10.1258 14.4273 11.1108 14.5067C12.0957 14.5861 13.0783 14.3303 13.8846 13.7846L14.8624 14.7179C13.7305 15.1798 12.5122 15.4179 11.2813 15.4179C7.8407 15.4179 4.71181 13.5863 2.84792 10.5004C3.74241 8.98856 5.03064 7.72271 6.58792 6.82543L8.04848 8.21376Z" fill="black" fill-opacity="0.43"/>
</g>
<defs>
<clipPath id="clip0_45_987">
<rect width="22" height="21" fill="white"/>
</clipPath>
</defs>
</svg>
