<svg width="23" height="23" viewBox="0 0 23 23" fill="none" xmlns="http://www.w3.org/2000/svg">
<g id="pajamas:status" clip-path="url(#clip0_36_64)">
<path id="Vector" fill-rule="evenodd" clip-rule="evenodd" d="M22.9152 10.1099C23.2333 12.721 22.6467 15.3621 21.2532 17.593C19.8597 19.8239 17.7436 21.5097 15.2577 22.3692C12.7718 23.2288 10.0664 23.2102 7.5925 22.3166C5.11863 21.4229 3.02588 19.7083 1.66319 17.4584C1.51488 17.2139 1.46981 16.9204 1.53788 16.6426C1.60595 16.3648 1.78159 16.1254 2.02616 15.9771C2.27073 15.8288 2.5642 15.7837 2.842 15.8518C3.11981 15.9199 3.35919 16.0955 3.5075 16.3401C4.24155 17.5522 5.24168 18.5815 6.43222 19.35C7.62276 20.1186 8.97252 20.6063 10.3794 20.7763C11.7862 20.9462 13.2133 20.7939 14.5526 20.331C15.8919 19.868 17.1084 19.1065 18.1099 18.104C19.1115 17.1016 19.8719 15.8844 20.3337 14.5447C20.7955 13.205 20.9465 11.7778 20.7752 10.3711C20.604 8.96438 20.1151 7.61506 19.3455 6.42521C18.5758 5.23536 17.5457 4.23615 16.3329 3.50319C16.0881 3.35526 15.9121 3.11617 15.8437 2.83849C15.7752 2.56082 15.8198 2.26732 15.9677 2.02256C16.1157 1.7778 16.3548 1.60183 16.6324 1.53335C16.9101 1.46488 17.2036 1.50951 17.4484 1.65744C18.9409 2.55959 20.2086 3.78938 21.1557 5.25376C22.1029 6.71814 22.7045 8.37874 22.9152 10.1099ZM12.9375 1.4375C12.9375 1.81875 12.786 2.18438 12.5165 2.45397C12.2469 2.72355 11.8812 2.875 11.5 2.875C11.1188 2.875 10.7531 2.72355 10.4835 2.45397C10.214 2.18438 10.0625 1.81875 10.0625 1.4375C10.0625 1.05625 10.214 0.690618 10.4835 0.421034C10.7531 0.15145 11.1188 0 11.5 0C11.8812 0 12.2469 0.15145 12.5165 0.421034C12.786 0.690618 12.9375 1.05625 12.9375 1.4375ZM4.03075 7.1875C4.12663 7.02395 4.18921 6.84306 4.21489 6.65523C4.24057 6.4674 4.22885 6.27634 4.18039 6.09306C4.13194 5.90978 4.04771 5.7379 3.93255 5.5873C3.81739 5.43671 3.67359 5.31038 3.50941 5.21559C3.34523 5.1208 3.16392 5.05942 2.97593 5.03498C2.78793 5.01055 2.59696 5.02354 2.414 5.07321C2.23105 5.12288 2.05973 5.20825 1.9099 5.3244C1.76007 5.44056 1.6347 5.5852 1.541 5.75C1.35338 6.07999 1.3039 6.47079 1.40336 6.83713C1.50282 7.20347 1.74314 7.51559 2.07188 7.70539C2.40062 7.8952 2.79108 7.94727 3.15807 7.85024C3.52506 7.75322 3.83877 7.51497 4.03075 7.1875ZM1.4375 10.0625C1.81875 10.0625 2.18438 10.214 2.45397 10.4835C2.72355 10.7531 2.875 11.1188 2.875 11.5C2.875 11.8812 2.72355 12.2469 2.45397 12.5165C2.18438 12.786 1.81875 12.9375 1.4375 12.9375C1.05625 12.9375 0.690618 12.786 0.421034 12.5165C0.15145 12.2469 0 11.8812 0 11.5C0 11.1188 0.15145 10.7531 0.421034 10.4835C0.690618 10.214 1.05625 10.0625 1.4375 10.0625ZM7.1875 4.03075C7.3523 3.93705 7.49694 3.81168 7.6131 3.66185C7.72925 3.51202 7.81462 3.3407 7.86429 3.15774C7.91396 2.97479 7.92695 2.78382 7.90252 2.59582C7.87808 2.40783 7.8167 2.22652 7.72191 2.06234C7.62712 1.89816 7.50079 1.75436 7.35019 1.6392C7.1996 1.52404 7.02772 1.43981 6.84444 1.39136C6.66116 1.3429 6.4701 1.33118 6.28227 1.35686C6.09444 1.38254 5.91355 1.44512 5.75 1.541C5.42253 1.73298 5.18428 2.04669 5.08726 2.41368C4.99023 2.78067 5.0423 3.17113 5.23211 3.49987C5.42191 3.82861 5.73403 4.06893 6.10037 4.16839C6.46671 4.26785 6.85751 4.21837 7.1875 4.03075Z" fill="#303FCE"/>
</g>
<defs>
<clipPath id="clip0_36_64">
<rect width="23" height="23" fill="white"/>
</clipPath>
</defs>
</svg>
