<svg width="28" height="28" viewBox="0 0 28 28" fill="none" xmlns="http://www.w3.org/2000/svg">
<g id="ep:upload-filled">
<path id="Vector" d="M14.875 23.625V18.375H18.375L14 13.125L9.625 18.375H13.125V23.625H8.75V23.5813C8.603 23.59 8.463 23.625 8.3125 23.625C6.57202 23.625 4.90282 22.9336 3.67211 21.7029C2.4414 20.4722 1.75 18.803 1.75 17.0625C1.75 13.6955 4.29625 10.9515 7.5635 10.5753C7.84996 9.07776 8.64928 7.7269 9.82399 6.755C10.9987 5.7831 12.4754 5.25092 14 5.25C15.5249 5.25085 17.0018 5.78297 18.1768 6.75484C19.3518 7.72672 20.1514 9.07762 20.4383 10.5753C23.7055 10.9515 26.2483 13.6955 26.2483 17.0625C26.2483 18.803 25.5568 20.4722 24.3261 21.7029C23.0954 22.9336 21.4262 23.625 19.6858 23.625C19.5387 23.625 19.397 23.59 19.2483 23.5813V23.625H14.875Z" fill="#303FCE"/>
</g>
</svg>
