<svg width="51" height="51" viewBox="0 0 51 51" fill="none" xmlns="http://www.w3.org/2000/svg">
<g id="healthicons:ui-user-profile">
<g id="Group">
<path id="Vector" d="M34 21.25C34 23.5043 33.1045 25.6663 31.5104 27.2604C29.9163 28.8545 27.7543 29.75 25.5 29.75C23.2457 29.75 21.0837 28.8545 19.4896 27.2604C17.8955 25.6663 17 23.5043 17 21.25C17 18.9957 17.8955 16.8337 19.4896 15.2396C21.0837 13.6455 23.2457 12.75 25.5 12.75C27.7543 12.75 29.9163 13.6455 31.5104 15.2396C33.1045 16.8337 34 18.9957 34 21.25Z" fill="#303FCE" fill-opacity="0.59"/>
<path id="Vector_2" fill-rule="evenodd" clip-rule="evenodd" d="M24.633 46.733C13.2993 46.2783 4.25 36.9453 4.25 25.5C4.25 13.7636 13.7636 4.25 25.5 4.25C37.2364 4.25 46.75 13.7636 46.75 25.5C46.75 37.2364 37.2364 46.75 25.5 46.75C25.403 46.7506 25.3059 46.7506 25.2089 46.75C25.0166 46.75 24.8242 46.7436 24.633 46.733ZM11.8639 38.9087C11.705 38.4525 11.6509 37.9663 11.7056 37.4863C11.7604 37.0062 11.9225 36.5447 12.1801 36.1359C12.4376 35.7271 12.7839 35.3816 13.1932 35.1249C13.6025 34.8683 14.0644 34.7071 14.5446 34.6534C22.8278 33.7365 28.2232 33.8194 36.4661 34.6726C36.9468 34.7226 37.4099 34.8818 37.8199 35.1378C38.2299 35.3939 38.576 35.7401 38.832 36.1502C39.0879 36.5602 39.2469 37.0233 39.2969 37.5041C39.3468 37.9849 39.2864 38.4708 39.1202 38.9247C42.6529 35.3503 44.6313 30.5256 44.625 25.5C44.625 14.9377 36.0623 6.375 25.5 6.375C14.9377 6.375 6.375 14.9377 6.375 25.5C6.375 30.7232 8.46919 35.4577 11.8639 38.9087Z" fill="#303FCE" fill-opacity="0.59"/>
</g>
</g>
</svg>
